<?xml version="1.0" standalone="no"?>
<!DOCTYPE svg PUBLIC "-//W3C//DTD SVG 20010904//EN"
 "http://www.w3.org/TR/2001/REC-SVG-20010904/DTD/svg10.dtd">
<svg version="1.0" xmlns="http://www.w3.org/2000/svg"
 width="200.000000pt" height="200.000000pt" viewBox="0 0 200.000000 200.000000"
 preserveAspectRatio="xMidYMid meet">
<metadata>
Created by potrace 1.14, written by Peter Selinger 2001-2017
</metadata>
<g transform="translate(0.000000,200.000000) scale(0.100000,-0.100000)"
fill="#000000" stroke="none">
<path d="M0 1000 l0 -1000 1000 0 1000 0 0 1000 0 1000 -1000 0 -1000 0 0
-1000z m590 -175 c11 -13 8 -15 -14 -15 -25 0 -33 10 -19 23 10 11 19 8 33 -8z
m-141 -45 c26 -7 26 -7 -9 -18 -31 -11 -45 -9 -105 13 l-70 25 79 -7 c44 -3
91 -9 105 -13z m-251 -38 l20 -27 -46 -1 c-33 -1 -41 1 -29 8 9 5 17 20 17 34
0 29 11 25 38 -14z m338 -41 c-32 -32 -110 -70 -121 -59 -2 2 5 18 17 36 14
23 34 36 66 46 73 23 79 19 38 -23z m-176 0 c3 -3 -7 -19 -23 -34 -19 -18 -27
-22 -23 -11 4 11 -1 26 -15 40 l-22 23 39 -6 c22 -3 41 -8 44 -12z m298 -11
c11 -29 10 -30 -29 -40 -22 -6 -48 -14 -57 -17 -9 -3 3 15 28 41 24 25 45 46
46 46 1 0 7 -13 12 -30z m-429 -77 c-12 -14 -68 -43 -84 -43 -3 0 -1 9 5 21
12 21 42 37 74 38 16 1 17 -1 5 -16z m216 -62 c-11 -11 -33 -22 -50 -26 -26
-5 -24 -2 15 19 55 31 60 32 35 7z m199 -19 c-73 -51 -89 -59 -142 -66 l-54
-7 29 40 c26 38 32 41 78 42 28 0 61 5 75 9 48 15 53 10 14 -18z m-341 -3
c-13 -13 -26 -18 -34 -14 -9 6 -7 11 6 22 11 7 26 13 34 13 12 0 11 -5 -6 -21z
m270 -98 c-39 -37 -75 -58 -144 -85 -51 -20 -94 -35 -95 -33 -1 1 22 30 53 65
50 57 58 62 96 63 23 0 62 8 87 19 25 10 47 18 50 19 3 0 -18 -22 -47 -48z
m-256 18 c-12 -7 -27 -7 -45 0 -25 9 -24 9 18 10 36 0 41 -2 27 -10z"/>
</g>
</svg>
